<?xml version="1.0" encoding="UTF-8" standalone="no"?>
<svg
   xmlns:dc="http://purl.org/dc/elements/1.1/"
   xmlns:cc="http://creativecommons.org/ns#"
   xmlns:rdf="http://www.w3.org/1999/02/22-rdf-syntax-ns#"
   xmlns:svg="http://www.w3.org/2000/svg"
   xmlns="http://www.w3.org/2000/svg"
   xmlns:sodipodi="http://sodipodi.sourceforge.net/DTD/sodipodi-0.dtd"
   xmlns:inkscape="http://www.inkscape.org/namespaces/inkscape"
   width="51.503654mm"
   height="48.927158mm"
   viewBox="0 0 51.503653 48.927157"
   version="1.1"
   id="svg8"
   inkscape:version="1.0.1 (3bc2e813f5, 2020-09-07)"
   sodipodi:docname="MM_white.svg"
   inkscape:export-filename="C:\Users\Julia\Desktop\MeetingMayhem\bitmap.png"
   inkscape:export-xdpi="246.58444"
   inkscape:export-ydpi="246.58444">
  <defs
     id="defs2" />
  <sodipodi:namedview
     id="base"
     pagecolor="#ffffff"
     bordercolor="#666666"
     borderopacity="1.0"
     inkscape:pageopacity="0.0"
     inkscape:pageshadow="2"
     inkscape:zoom="2.8"
     inkscape:cx="90.776943"
     inkscape:cy="125.59085"
     inkscape:document-units="mm"
     inkscape:current-layer="layer4"
     inkscape:document-rotation="0"
     showgrid="false"
     inkscape:window-width="1920"
     inkscape:window-height="1017"
     inkscape:window-x="1912"
     inkscape:window-y="-8"
     inkscape:window-maximized="1" />
  <metadata
     id="metadata5">
    <rdf:RDF>
      <cc:Work
         rdf:about="">
        <dc:format>image/svg+xml</dc:format>
        <dc:type
           rdf:resource="http://purl.org/dc/dcmitype/StillImage" />
        <dc:title />
      </cc:Work>
    </rdf:RDF>
  </metadata>
  <g
     inkscape:groupmode="layer"
     id="layer4"
     inkscape:label="Adversary 1"
     style="display:none">
    <rect
       style="fill:#000000;stroke:#ffffff;stroke-width:1.4;stroke-linecap:round;stroke-linejoin:round;stroke-opacity:1"
       id="rect1572"
       width="54.145088"
       height="50.554314"
       x="-0.47247022"
       y="-0.1889881" />
  </g>
  <g
     inkscape:label="Adversary"
     inkscape:groupmode="layer"
     id="layer1"
     style="display:inline"
     transform="translate(-60.806456,-45.622721)">
    <path
       style="fill:#1e0000;fill-opacity:0;stroke:#ffffff;stroke-width:0.7;stroke-linejoin:bevel;stroke-miterlimit:4;stroke-dasharray:none;stroke-opacity:1"
       id="path835"
       sodipodi:type="arc"
       sodipodi:cx="85.422623"
       sodipodi:cy="70.870537"
       sodipodi:rx="4.8191962"
       sodipodi:ry="4.8191962"
       sodipodi:start="0"
       sodipodi:end="6.2787347"
       sodipodi:open="true"
       sodipodi:arc-type="chord"
       d="m 90.241819,70.870537 a 4.8191962,4.8191962 0 0 1 -4.813834,4.819193 4.8191962,4.8191962 0 0 1 -4.824547,-4.808469 4.8191962,4.8191962 0 0 1 4.803098,-4.829894 4.8191962,4.8191962 0 0 1 4.835235,4.797722 z" />
    <path
       style="fill:none;stroke:#ffffff;stroke-width:1.4;stroke-linecap:butt;stroke-linejoin:miter;stroke-miterlimit:4;stroke-dasharray:none;stroke-opacity:1"
       d="m 87.170759,66.382068 c 2.069497,0.06384 2.712318,-0.69925 2.504092,-2.126118 -0.161901,-1.10943 -0.614212,-1.696582 -1.039435,-2.267857 1.890126,0.09958 2.822341,0.821464 3.49628,1.748142 1.033197,1.420663 0.921158,3.08001 0.04725,4.488466 -0.696246,1.122122 -1.487564,0.617064 -2.220611,0.850447"
       id="path837"
       sodipodi:nodetypes="cscssc" />
    <path
       style="fill:#1e0000;fill-opacity:0;stroke:#ffffff;stroke-width:1.4;stroke-linejoin:bevel;stroke-miterlimit:4;stroke-dasharray:none;stroke-opacity:1"
       id="path841"
       sodipodi:type="arc"
       sodipodi:cx="-85.398804"
       sodipodi:cy="70.917786"
       sodipodi:rx="4.8191962"
       sodipodi:ry="4.8191962"
       sodipodi:start="0"
       sodipodi:end="6.2787347"
       sodipodi:open="true"
       sodipodi:arc-type="chord"
       d="m -80.579607,70.917786 a 4.8191962,4.8191962 0 0 1 -4.813835,4.819193 4.8191962,4.8191962 0 0 1 -4.824546,-4.808469 4.8191962,4.8191962 0 0 1 4.803098,-4.829894 4.8191962,4.8191962 0 0 1 4.835235,4.797721 z"
       transform="scale(-1,1)" />
    <path
       style="fill:none;stroke:#ffffff;stroke-width:1.4;stroke-linecap:butt;stroke-linejoin:miter;stroke-miterlimit:4;stroke-dasharray:none;stroke-opacity:1"
       d="m 83.65067,66.429315 c -2.069497,0.06384 -2.712318,-0.69925 -2.504092,-2.126118 0.161901,-1.10943 0.614212,-1.696582 1.039435,-2.267857 -1.890126,0.09958 -2.822341,0.821464 -3.49628,1.748142 -1.033197,1.420663 -0.921158,3.08001 -0.04725,4.488466 0.696246,1.122122 1.487564,0.617064 2.220611,0.850447"
       id="path843"
       sodipodi:nodetypes="cscssc" />
  </g>
  <g
     inkscape:groupmode="layer"
     id="layer2"
     inkscape:label="Tringle"
     style="display:none"
     transform="translate(-60.806456,-45.622721)">
    <path
       sodipodi:type="star"
       style="fill:#1e0000;fill-opacity:0;stroke:#000000;stroke-width:0.7;stroke-linejoin:bevel;stroke-miterlimit:4;stroke-dasharray:none"
       id="path854"
       sodipodi:sides="3"
       sodipodi:cx="85.139137"
       sodipodi:cy="68.413689"
       sodipodi:r1="19.820562"
       sodipodi:r2="9.9102812"
       sodipodi:arg1="0.5297903"
       sodipodi:arg2="1.5769879"
       inkscape:flatsided="true"
       inkscape:rounded="3.469447e-18"
       inkscape:randomized="0"
       d="M 102.24256,78.430057 67.912996,78.217502 85.261856,48.593506 Z"
       inkscape:transform-center-x="0.061360336"
       inkscape:transform-center-y="-4.9019076" />
    <path
       style="fill:none;stroke:#000000;stroke-width:0.7;stroke-linecap:butt;stroke-linejoin:miter;stroke-miterlimit:4;stroke-dasharray:none;stroke-opacity:1"
       d="M 102.24256,78.430056 85.261854,48.593507 v 0 l -3.942226,-6.748556"
       id="path856"
       sodipodi:nodetypes="cccc" />
  </g>
  <g
     inkscape:groupmode="layer"
     id="layer3"
     inkscape:label="Tringle 1"
     style="display:none"
     transform="translate(-60.806456,-45.622721)">
    <path
       style="fill:none;stroke:#000000;stroke-width:0.7;stroke-linecap:round;stroke-linejoin:miter;stroke-miterlimit:4;stroke-dasharray:none;stroke-opacity:1"
       d="M 67.802297,78.962597 H 113.74613"
       id="path859"
       sodipodi:nodetypes="cc" />
    <path
       sodipodi:type="star"
       style="fill:#1e0000;fill-opacity:0;stroke:#000000;stroke-width:0.73818;stroke-linecap:round;stroke-linejoin:round;stroke-miterlimit:4;stroke-dasharray:none"
       id="path861"
       sodipodi:sides="3"
       sodipodi:cx="85.383018"
       sodipodi:cy="68.812363"
       sodipodi:r1="20.300468"
       sodipodi:r2="10.150234"
       sodipodi:arg1="2.6179939"
       sodipodi:arg2="3.6651914"
       inkscape:flatsided="true"
       inkscape:rounded="3.46945e-18"
       inkscape:randomized="0"
       d="M 67.802297,78.962597 85.383019,48.511894 102.96374,78.962597 Z"
       inkscape:transform-center-y="-5.0751161" />
    <path
       style="fill:none;stroke:#000000;stroke-width:0.7;stroke-linecap:round;stroke-linejoin:miter;stroke-miterlimit:4;stroke-dasharray:none;stroke-opacity:1"
       d="m 113.74613,78.962597 -3.94346,-6.830264"
       id="path863" />
    <path
       style="display:inline;fill:#1e0000;fill-opacity:0;stroke:#000000;stroke-width:0.7;stroke-linejoin:bevel;stroke-miterlimit:4;stroke-dasharray:none"
       id="path841-3"
       sodipodi:type="arc"
       sodipodi:cx="-85.793518"
       sodipodi:cy="87.664406"
       sodipodi:rx="4.8191962"
       sodipodi:ry="4.8191962"
       sodipodi:start="0"
       sodipodi:end="6.2787347"
       sodipodi:open="true"
       sodipodi:arc-type="chord"
       d="m -80.974322,87.664406 a 4.8191962,4.8191962 0 0 1 -4.813834,4.819193 4.8191962,4.8191962 0 0 1 -4.824546,-4.808469 4.8191962,4.8191962 0 0 1 4.803098,-4.829894 4.8191962,4.8191962 0 0 1 4.835234,4.797722 z"
       transform="scale(-1,1)" />
  </g>
  <g
     inkscape:groupmode="layer"
     id="g1164"
     inkscape:label="Tringle 1 copy"
     style="display:none"
     transform="translate(-60.806456,-45.622721)">
    <path
       sodipodi:type="star"
       style="fill:#1e0000;fill-opacity:0;stroke:#000000;stroke-width:0.7;stroke-linecap:round;stroke-linejoin:round;stroke-miterlimit:4;stroke-dasharray:none"
       id="path1158"
       sodipodi:sides="3"
       sodipodi:cx="85.383018"
       sodipodi:cy="68.812363"
       sodipodi:r1="20.300468"
       sodipodi:r2="10.150234"
       sodipodi:arg1="2.6179939"
       sodipodi:arg2="3.6651914"
       inkscape:flatsided="true"
       inkscape:rounded="3.46945e-18"
       inkscape:randomized="0"
       d="M 67.802297,78.962597 85.383019,48.511894 102.96374,78.962597 Z"
       inkscape:transform-center-y="-5.0751161" />
    <path
       style="display:inline;fill:#1e0000;fill-opacity:0;stroke:#000000;stroke-width:1.4;stroke-linejoin:bevel;stroke-miterlimit:4;stroke-dasharray:none"
       id="path1162"
       sodipodi:type="arc"
       sodipodi:cx="-85.793518"
       sodipodi:cy="87.664406"
       sodipodi:rx="4.8191962"
       sodipodi:ry="4.8191962"
       sodipodi:start="0"
       sodipodi:end="6.2787347"
       sodipodi:open="true"
       sodipodi:arc-type="chord"
       d="m -80.974322,87.664406 a 4.8191962,4.8191962 0 0 1 -4.813834,4.819193 4.8191962,4.8191962 0 0 1 -4.824546,-4.808469 4.8191962,4.8191962 0 0 1 4.803098,-4.829894 4.8191962,4.8191962 0 0 1 4.835234,4.797722 z"
       transform="scale(-1,1)" />
  </g>
  <g
     inkscape:groupmode="layer"
     id="g1202"
     inkscape:label="Tringle 1 copy copy 1"
     style="display:none"
     transform="translate(-60.806456,-45.622721)">
    <path
       sodipodi:type="star"
       style="fill:#1e0000;fill-opacity:0;stroke:#000000;stroke-width:0.7;stroke-linecap:round;stroke-linejoin:round;stroke-miterlimit:4;stroke-dasharray:none"
       id="path1194"
       sodipodi:sides="3"
       sodipodi:cx="85.383018"
       sodipodi:cy="68.812363"
       sodipodi:r1="20.300468"
       sodipodi:r2="10.150234"
       sodipodi:arg1="2.6179939"
       sodipodi:arg2="3.6651914"
       inkscape:flatsided="true"
       inkscape:rounded="3.46945e-18"
       inkscape:randomized="0"
       d="M 67.802297,78.962597 85.383019,48.511894 102.96374,78.962597 Z"
       inkscape:transform-center-y="-5.0751166"
       transform="rotate(-120,85.383018,68.812363)" />
    <path
       style="display:inline;fill:#1e0000;fill-opacity:0;stroke:#000000;stroke-width:1.4;stroke-linejoin:bevel;stroke-miterlimit:4;stroke-dasharray:none"
       id="path1198"
       sodipodi:type="arc"
       sodipodi:cx="101.87427"
       sodipodi:cy="58.389725"
       sodipodi:rx="4.8191962"
       sodipodi:ry="4.8191962"
       sodipodi:start="0"
       sodipodi:end="6.2787347"
       sodipodi:open="true"
       sodipodi:arc-type="chord"
       d="m 106.69346,58.389725 a 4.8191962,4.8191962 0 0 1 -4.81383,4.819193 4.8191962,4.8191962 0 0 1 -4.824547,-4.808469 4.8191962,4.8191962 0 0 1 4.803097,-4.829894 4.8191962,4.8191962 0 0 1 4.83524,4.797721 z"
       transform="matrix(0.5,0.8660254,0.8660254,-0.5,0,0)" />
  </g>
  <g
     inkscape:groupmode="layer"
     id="g1214"
     inkscape:label="Tringle 1 copy copy 1 copy"
     style="display:none"
     transform="translate(-60.806456,-45.622721)"
     sodipodi:insensitive="true">
    <path
       style="fill:none;stroke:#000000;stroke-width:1.4;stroke-linecap:round;stroke-linejoin:miter;stroke-miterlimit:4;stroke-dasharray:none;stroke-opacity:1"
       d="m 85.383019,48.511894 -21.32132,36.92961"
       id="path1204"
       sodipodi:nodetypes="cc" />
    <path
       sodipodi:type="star"
       style="fill:#1e0000;fill-opacity:0;stroke:#000000;stroke-width:0.7;stroke-linecap:round;stroke-linejoin:round;stroke-miterlimit:4;stroke-dasharray:none"
       id="path1206"
       sodipodi:sides="3"
       sodipodi:cx="85.383018"
       sodipodi:cy="68.812363"
       sodipodi:r1="20.300468"
       sodipodi:r2="10.150234"
       sodipodi:arg1="2.6179939"
       sodipodi:arg2="3.6651914"
       inkscape:flatsided="true"
       inkscape:rounded="3.46945e-18"
       inkscape:randomized="0"
       d="M 67.802297,78.962597 85.383019,48.511894 102.96374,78.962597 Z"
       inkscape:transform-center-y="-5.075118"
       transform="rotate(120,85.383018,68.812362)" />
    <path
       style="fill:none;stroke:#000000;stroke-width:1.4;stroke-linecap:round;stroke-linejoin:miter;stroke-miterlimit:4;stroke-dasharray:none;stroke-opacity:1"
       d="M 64.061699,85.441504 H 76.546258"
       id="path1208" />
    <path
       style="display:inline;fill:#1e0000;fill-opacity:0;stroke:#000000;stroke-width:1.4;stroke-linejoin:bevel;stroke-miterlimit:4;stroke-dasharray:none"
       id="path1210"
       sodipodi:type="arc"
       sodipodi:cx="-17.312243"
       sodipodi:cy="-89.498001"
       sodipodi:rx="4.8191962"
       sodipodi:ry="4.8191962"
       sodipodi:start="0"
       sodipodi:end="6.2787347"
       sodipodi:open="true"
       sodipodi:arc-type="chord"
       d="m -12.493046,-89.498001 a 4.8191962,4.8191962 0 0 1 -4.813834,4.819193 4.8191962,4.8191962 0 0 1 -4.824547,-4.808469 4.8191962,4.8191962 0 0 1 4.803098,-4.829893 4.8191962,4.8191962 0 0 1 4.835235,4.797721 z"
       transform="matrix(0.5,-0.8660254,-0.8660254,-0.5,0,0)" />
    <path
       style="fill:none;stroke:#000000;stroke-width:1.4;stroke-linecap:round;stroke-linejoin:round;stroke-miterlimit:4;stroke-dasharray:none;stroke-opacity:1"
       d="m 72.345472,89.64229 4.200786,-4.200786 -4.200784,-4.200792"
       id="path1212" />
    <path
       style="display:inline;fill:none;stroke:#000000;stroke-width:1.4;stroke-linecap:round;stroke-linejoin:miter;stroke-miterlimit:4;stroke-dasharray:none;stroke-opacity:1"
       d="m 67.802296,78.962597 42.642634,10e-7"
       id="path1204-5"
       sodipodi:nodetypes="cc" />
    <path
       style="display:inline;fill:none;stroke:#000000;stroke-width:1.4;stroke-linecap:round;stroke-linejoin:miter;stroke-miterlimit:4;stroke-dasharray:none;stroke-opacity:1"
       d="M 110.44493,78.962598 104.20266,68.150652"
       id="path1208-7" />
    <path
       style="display:inline;fill:none;stroke:#000000;stroke-width:1.4;stroke-linecap:round;stroke-linejoin:round;stroke-miterlimit:4;stroke-dasharray:none;stroke-opacity:1"
       d="m 109.94103,69.688248 -5.73837,-1.537596 -1.5376,5.738381"
       id="path1212-4" />
    <path
       style="display:inline;fill:none;stroke:#000000;stroke-width:1.4;stroke-linecap:round;stroke-linejoin:miter;stroke-miterlimit:4;stroke-dasharray:none;stroke-opacity:1"
       d="M 102.96374,78.962597 81.642426,42.032997"
       id="path1204-5-0"
       sodipodi:nodetypes="cc" />
    <path
       style="display:inline;fill:none;stroke:#000000;stroke-width:1.4;stroke-linecap:round;stroke-linejoin:miter;stroke-miterlimit:4;stroke-dasharray:none;stroke-opacity:1"
       d="M 81.642426,42.032997 75.400141,52.844934"
       id="path1208-7-6" />
    <path
       style="display:inline;fill:none;stroke:#000000;stroke-width:1.4;stroke-linecap:round;stroke-linejoin:round;stroke-miterlimit:4;stroke-dasharray:none;stroke-opacity:1"
       d="m 73.862553,47.106562 1.537588,5.738372 5.738384,-1.53759"
       id="path1212-4-6" />
    <path
       style="display:inline;fill:#1e0000;fill-opacity:0;stroke:#000000;stroke-width:1.4;stroke-linejoin:bevel;stroke-miterlimit:4;stroke-dasharray:none"
       id="path1210-9"
       sodipodi:type="arc"
       sodipodi:cx="-17.312243"
       sodipodi:cy="-89.498001"
       sodipodi:rx="4.8191962"
       sodipodi:ry="4.8191962"
       sodipodi:start="0"
       sodipodi:end="6.2787347"
       sodipodi:open="true"
       sodipodi:arc-type="chord"
       d="m -12.493046,-89.498001 a 4.8191962,4.8191962 0 0 1 -4.813834,4.819193 4.8191962,4.8191962 0 0 1 -4.824547,-4.808469 4.8191962,4.8191962 0 0 1 4.803098,-4.829893 4.8191962,4.8191962 0 0 1 4.835235,4.797721 z"
       transform="matrix(0.5,-0.8660254,-0.8660254,-0.5,0,0)" />
    <path
       style="display:inline;fill:none;stroke:#000000;stroke-width:1.4;stroke-linecap:round;stroke-linejoin:miter;stroke-miterlimit:4;stroke-dasharray:none;stroke-opacity:1"
       d="M 102.96374,78.962597 81.642426,42.032997"
       id="path1204-5-0-9"
       sodipodi:nodetypes="cc" />
    <path
       style="display:inline;fill:none;stroke:#000000;stroke-width:1.4;stroke-linecap:round;stroke-linejoin:miter;stroke-miterlimit:4;stroke-dasharray:none;stroke-opacity:1"
       d="M 81.642426,42.032997 75.400141,52.844934"
       id="path1208-7-6-0" />
    <path
       style="display:inline;fill:none;stroke:#000000;stroke-width:1.4;stroke-linecap:round;stroke-linejoin:round;stroke-miterlimit:4;stroke-dasharray:none;stroke-opacity:1"
       d="m 73.862553,47.106562 1.537588,5.738372 5.738384,-1.53759"
       id="path1212-4-6-9" />
    <path
       style="display:inline;fill:#1e0000;fill-opacity:0;stroke:#000000;stroke-width:1.4;stroke-linejoin:bevel;stroke-miterlimit:4;stroke-dasharray:none"
       id="path1198-6"
       sodipodi:type="arc"
       sodipodi:cx="101.87427"
       sodipodi:cy="58.389725"
       sodipodi:rx="4.8191962"
       sodipodi:ry="4.8191962"
       sodipodi:start="0"
       sodipodi:end="6.2787347"
       sodipodi:open="true"
       sodipodi:arc-type="chord"
       d="m 106.69346,58.389725 a 4.8191962,4.8191962 0 0 1 -4.81383,4.819193 4.8191962,4.8191962 0 0 1 -4.824547,-4.808469 4.8191962,4.8191962 0 0 1 4.803097,-4.829894 4.8191962,4.8191962 0 0 1 4.83524,4.797721 z"
       transform="matrix(0.5,0.8660254,0.8660254,-0.5,0,0)" />
    <path
       style="display:inline;fill:#1e0000;fill-opacity:0;stroke:#000000;stroke-width:1.4;stroke-linejoin:bevel;stroke-miterlimit:4;stroke-dasharray:none"
       id="path1162-8"
       sodipodi:type="arc"
       sodipodi:cx="-85.793518"
       sodipodi:cy="87.664406"
       sodipodi:rx="4.8191962"
       sodipodi:ry="4.8191962"
       sodipodi:start="0"
       sodipodi:end="6.2787347"
       sodipodi:open="true"
       sodipodi:arc-type="chord"
       d="m -80.974322,87.664406 a 4.8191962,4.8191962 0 0 1 -4.813834,4.819193 4.8191962,4.8191962 0 0 1 -4.824546,-4.808469 4.8191962,4.8191962 0 0 1 4.803098,-4.829894 4.8191962,4.8191962 0 0 1 4.835234,4.797722 z"
       transform="scale(-1,1)" />
  </g>
  <g
     inkscape:groupmode="layer"
     id="g1017"
     inkscape:label="Tringle 1 copy copy 1 copy copy"
     style="display:inline"
     transform="translate(-60.806456,-45.622721)">
    <path
       style="fill:none;stroke:#ffffff;stroke-width:1.4;stroke-linecap:round;stroke-linejoin:miter;stroke-miterlimit:4;stroke-dasharray:none;stroke-opacity:1"
       d="m 73.890333,51.289996 2.65541,42.559883"
       id="path983"
       sodipodi:nodetypes="cc" />
    <path
       sodipodi:type="star"
       style="fill:#1e0000;fill-opacity:0;stroke:#ffffff;stroke-width:0.7;stroke-linecap:round;stroke-linejoin:round;stroke-miterlimit:4;stroke-dasharray:none;stroke-opacity:1"
       id="path985"
       sodipodi:sides="3"
       sodipodi:cx="85.383018"
       sodipodi:cy="68.812363"
       sodipodi:r1="20.300468"
       sodipodi:r2="10.150234"
       sodipodi:arg1="2.6179939"
       sodipodi:arg2="3.6651914"
       inkscape:flatsided="true"
       inkscape:rounded="3.46945e-18"
       inkscape:randomized="0"
       d="M 67.802297,78.962597 85.383019,48.511894 102.96374,78.962597 Z"
       inkscape:transform-center-y="0.63206735"
       transform="rotate(86.429809,85.572798,68.366157)"
       inkscape:transform-center-x="-4.5178805" />
    <path
       style="fill:none;stroke:#ffffff;stroke-width:1.4;stroke-linecap:round;stroke-linejoin:miter;stroke-miterlimit:4;stroke-dasharray:none;stroke-opacity:1"
       d="M 76.545743,93.849879 86.947991,86.94644"
       id="path987" />
    <path
       style="fill:none;stroke:#ffffff;stroke-width:1.4;stroke-linecap:round;stroke-linejoin:round;stroke-miterlimit:4;stroke-dasharray:none;stroke-opacity:1"
       d="M 85.770717,92.769432 86.947991,86.94644 81.124998,85.769159"
       id="path991" />
    <path
       style="display:inline;fill:none;stroke:#ffffff;stroke-width:1.4;stroke-linecap:round;stroke-linejoin:miter;stroke-miterlimit:4;stroke-dasharray:none;stroke-opacity:1"
       d="M 76.079879,86.383201 111.61011,62.80361"
       id="path993"
       sodipodi:nodetypes="cc" />
    <path
       style="display:inline;fill:none;stroke:#ffffff;stroke-width:1.4;stroke-linecap:round;stroke-linejoin:miter;stroke-miterlimit:4;stroke-dasharray:none;stroke-opacity:1"
       d="M 111.61011,62.80361 100.43044,57.246714"
       id="path995" />
    <path
       style="display:inline;fill:none;stroke:#ffffff;stroke-width:1.4;stroke-linecap:round;stroke-linejoin:round;stroke-miterlimit:4;stroke-dasharray:none;stroke-opacity:1"
       d="m 106.06193,55.354774 -5.63149,1.89194 1.89195,5.631498"
       id="path997" />
    <path
       style="display:inline;fill:#1e0000;fill-opacity:0;stroke:#ffffff;stroke-width:1.4;stroke-linejoin:bevel;stroke-miterlimit:4;stroke-dasharray:none;stroke-opacity:1"
       id="path1005"
       sodipodi:type="arc"
       sodipodi:cx="-73.782913"
       sodipodi:cy="-61.851227"
       sodipodi:rx="4.8191962"
       sodipodi:ry="4.8191962"
       sodipodi:start="0"
       sodipodi:end="6.2787347"
       sodipodi:open="true"
       sodipodi:arc-type="chord"
       d="m -68.963717,-61.851227 a 4.8191962,4.8191962 0 0 1 -4.813834,4.819193 4.8191962,4.8191962 0 0 1 -4.824546,-4.808469 4.8191962,4.8191962 0 0 1 4.803098,-4.829893 4.8191962,4.8191962 0 0 1 4.835234,4.797721 z"
       transform="matrix(-0.06227127,-0.99805926,-0.99805926,0.06227127,0,0)" />
    <path
       style="display:inline;fill:none;stroke:#ffffff;stroke-width:1.4;stroke-linecap:round;stroke-linejoin:miter;stroke-miterlimit:4;stroke-dasharray:none;stroke-opacity:1"
       d="M 105.37671,66.940395 67.191077,47.960112"
       id="path1007"
       sodipodi:nodetypes="cc" />
    <path
       style="display:inline;fill:none;stroke:#ffffff;stroke-width:1.4;stroke-linecap:round;stroke-linejoin:miter;stroke-miterlimit:4;stroke-dasharray:none;stroke-opacity:1"
       d="m 67.191077,47.960112 0.777421,12.460326"
       id="path1009" />
    <path
       style="display:inline;fill:none;stroke:#ffffff;stroke-width:1.4;stroke-linecap:round;stroke-linejoin:round;stroke-miterlimit:4;stroke-dasharray:none;stroke-opacity:1"
       d="m 63.514286,56.489396 4.454212,3.931042 3.931051,-4.45422"
       id="path1011" />
    <path
       style="display:inline;fill:#1e0000;fill-opacity:0;stroke:#ffffff;stroke-width:1.4;stroke-linejoin:bevel;stroke-miterlimit:4;stroke-dasharray:none;stroke-opacity:1"
       id="path1013"
       sodipodi:type="arc"
       sodipodi:cx="106.1668"
       sodipodi:cy="-4.3387027"
       sodipodi:rx="4.8191962"
       sodipodi:ry="4.8191962"
       sodipodi:start="0"
       sodipodi:end="6.2787347"
       sodipodi:open="true"
       sodipodi:arc-type="chord"
       d="m 110.986,-4.3387027 a 4.8191962,4.8191962 0 0 1 -4.81384,4.81919326 4.8191962,4.8191962 0 0 1 -4.82454,-4.80846906 4.8191962,4.8191962 0 0 1 4.8031,-4.8298936 4.8191962,4.8191962 0 0 1 4.83523,4.7977211 z"
       transform="matrix(0.89548031,0.44510113,0.44510113,-0.89548031,0,0)" />
    <path
       style="display:inline;fill:#1e0000;fill-opacity:0;stroke:#ffffff;stroke-width:1.4;stroke-linejoin:bevel;stroke-miterlimit:4;stroke-dasharray:none;stroke-opacity:1"
       id="path1015"
       sodipodi:type="arc"
       sodipodi:cx="-33.615372"
       sodipodi:cy="122.74606"
       sodipodi:rx="4.8191962"
       sodipodi:ry="4.8191962"
       sodipodi:start="0"
       sodipodi:end="6.2787347"
       sodipodi:open="true"
       sodipodi:arc-type="chord"
       d="m -28.796175,122.74606 a 4.8191962,4.8191962 0 0 1 -4.813835,4.8192 4.8191962,4.8191962 0 0 1 -4.824546,-4.80847 4.8191962,4.8191962 0 0 1 4.803098,-4.8299 4.8191962,4.8191962 0 0 1 4.835235,4.79772 z"
       transform="matrix(-0.83320904,0.55295813,0.55295813,0.83320904,0,0)" />
  </g>
  <g
     inkscape:groupmode="layer"
     id="g1184"
     inkscape:label="Tringle 1 copy copy"
     style="display:none"
     transform="translate(-60.806456,-45.622721)">
    <path
       style="fill:none;stroke:#fc0000;stroke-width:0.7;stroke-linecap:round;stroke-linejoin:miter;stroke-miterlimit:4;stroke-dasharray:none;stroke-opacity:1"
       d="M 102.96374,78.962596 79.991823,39.17407"
       id="path1176"
       sodipodi:nodetypes="cc" />
    <path
       sodipodi:type="star"
       style="fill:#1e0000;fill-opacity:0;stroke:#ff0000;stroke-width:0.7;stroke-linecap:round;stroke-linejoin:round;stroke-miterlimit:4;stroke-dasharray:none;stroke-opacity:1"
       id="path1178"
       sodipodi:sides="3"
       sodipodi:cx="85.383018"
       sodipodi:cy="68.812363"
       sodipodi:r1="20.300468"
       sodipodi:r2="10.150234"
       sodipodi:arg1="2.6179939"
       sodipodi:arg2="3.6651914"
       inkscape:flatsided="true"
       inkscape:rounded="3.46945e-18"
       inkscape:randomized="0"
       d="M 67.802297,78.962597 85.383019,48.511894 102.96374,78.962597 Z"
       inkscape:transform-center-y="-5.0751166"
       transform="rotate(-120,85.383018,68.812363)" />
    <path
       style="fill:none;stroke:#fc0000;stroke-width:0.7;stroke-linecap:round;stroke-linejoin:miter;stroke-miterlimit:4;stroke-dasharray:none;stroke-opacity:1"
       d="m 79.991823,39.17407 -3.943452,6.830268"
       id="path1180" />
    <path
       style="display:inline;fill:#1e0000;fill-opacity:0;stroke:#ff0000;stroke-width:0.7;stroke-linejoin:bevel;stroke-miterlimit:4;stroke-dasharray:none;stroke-opacity:1"
       id="path1182"
       sodipodi:type="arc"
       sodipodi:cx="101.87427"
       sodipodi:cy="58.389725"
       sodipodi:rx="4.8191962"
       sodipodi:ry="4.8191962"
       sodipodi:start="0"
       sodipodi:end="6.2787347"
       sodipodi:open="true"
       sodipodi:arc-type="chord"
       d="m 106.69346,58.389725 a 4.8191962,4.8191962 0 0 1 -4.81383,4.819193 4.8191962,4.8191962 0 0 1 -4.824547,-4.808469 4.8191962,4.8191962 0 0 1 4.803097,-4.829894 4.8191962,4.8191962 0 0 1 4.83524,4.797721 z"
       transform="matrix(0.5,0.8660254,0.8660254,-0.5,0,0)" />
  </g>
</svg>
